#!OML:ASF F:\VICON\USERDATA\INSTALL\rory3\rory3.ASF
:FULLY-SPECIFIED
:DEGREES
71
root 0.05834704234018176 17.301813033260494 34.75598318274559 3.717113134518467 4.2550416246710965 1.2239559214359068
lfemur 2.8797953796620863 -3.352478616086303 -27.261740858811
ltibia 39.89035112060142
lfoot -16.75436192027312 2.0892869822046913
ltoes -16.482668310884996
rfemur -46.34107761544045 -5.876956623060879 21.764473724381485
rtibia 92.0829351044738
rfoot 5.317001637164753 -3.7012626174325556
rtoes 5.136058162905071
lowerback nan -1.0208125020905812 -3.040136644438183
upperback -0.8746315008482359 -1.7654090928438877 0.6411821150525421
thorax -9.69335026023545 -0.6594299219977545 3.45522541117312
lowerneck -21.97997815832925 -2.9436873245272115 -1.7273391465563368
upperneck 14.008451474383833 -3.997113879751552 2.8895059293510528
head 7.910349589037893 -1.6430043479639362 0.7443701357344932
lclavicle -1.5112600925468984e-15 1.241798780591437e-15
lhumerus -40.600637845020344 -19.229734403468264 97.17281350280935
lradius 112.83284606040331
lwrist 35.5175601379437
lhand -25.1982432345933 1.6818843044800809
lfingers nan
lthumb 1.7888916195030622 32.00196750449997
rclavicle -2.0066013892357232e-15 1.316686689704756e-15
rhumerus -56.83068276550999 6.973531033429039 -100.12343886014195
rradius 108.34586186388223
rwrist -10.877362826769689
rhand -15.836779335276486 nan
rfingers nan
rthumb 9.94716335287195 9.452636659913804
72
root 0.045364518591535036 17.430775763787874 36.85734286675954 3.62807306127891 2.7713962618977175 0.6181487769949126
lfemur 6.053714507171835 -2.3696311922602935 -26.39352494806673
ltibia 38.561540273944054
lfoot -13.007942363545125 0.4196540184074591
ltoes -22.57403291758757
rfemur -47.8750922011681 -3.907812191363704 23.043792528073418
rtibia 84.77603627009404
rfoot 3.3564203848412877 -4.311854358435918
rtoes 4.127928078156142
lowerback nan -1.153504190602465 -2.9159425762440465
upperback -1.1311760744319628 -1.9534226433463182 1.0308036356469632
thorax -9.645982385952202 -0.7415854868558546 3.9219241815096955
lowerneck -21.599002604467575 -2.7037109350922175 -1.9003615361470028
upperneck 14.36293163116316 -3.5981088688163827 2.796349854330945
head 7.973649606018991 -1.4622982133730373 0.7622897328418319
lclavicle -4.0577883697062924e-15 -2.2666352761958585e-15
lhumerus -40.76994362006035 -19.364457094324774 97.12541173722475
lradius 113.48580392009698
lwrist 35.55089180718992
lhand -24.99368634048301 1.8754831119177566
lfingers nan
lthumb 1.891255083203045 32.08103385920923
rclavicle -4.098486407765017e-15 -2.0244843286754415e-15
rhumerus -57.79762056396051 6.732177324640461 -99.86637187687944
rradius 108.8535595847043
rwrist -11.211303853021423
rhand -15.807281599492496 nan
rfingers nan
rthumb 10.101907841792848 9.542545183054182
73
root 0.15040426228247047 17.6108002424127 38.67735303826387 3.7356252618203953 2.402372093142603 0.507317783001684
lfemur 9.231625638202976 -2.3449439142728736 -26.323428738811803
ltibia 37.006445794819214
lfoot -7.889796651277357 -2.5451175175861076
ltoes -26.111632076522994
rfemur -48.7520646267925 -3.236416321923677 23.481843514657584
rtibia 76.5638539268421
rfoot 1.7788268664641138 -4.59669758315375
rtoes 2.9196946661999506
lowerback nan -1.5034686686050192 -2.8158952822710868
upperback -1.4233888939027783 -2.2962060994174136 1.4562354459021258
thorax -9.580605015719577 -0.8853097862968459 4.318224769590013
lowerneck -21.127476395706392 -2.493041065375733 -2.036570708046207
upperneck 14.713971191623637 -3.2490891942005087 2.643495516517684
head 8.013984067801736 -1.3195898453517994 0.7477142263854931
lclavicle -5.068928548698547e-15 -3.1918743489899614e-15
lhumerus -40.96949959628142 -19.634816526250724 97.16058864464615
lradius 113.79529959434454
lwrist 35.54969384334086
lhand -25.018251540624945 1.5598419515083144
lfingers nan
lthumb 1.8045500096676967 31.86520760944594
rclavicle -4.715259500795076e-15 -2.751687206941959e-15
rhumerus -58.6140912968868 6.513960162271054 -99.50637926628501
rradius 109.2734037795933
rwrist -11.263905992005345
rhand -15.772731638916973 nan
rfingers nan
rthumb 10.304036320653971 9.683498765974626
74
root 0.18583129635105963 17.803370325233974 38.602714390733475 3.9657860735058663 1.2126105808309406 -0.20891272729873123
lfemur 11.572623008591817 -1.9273900683168628 -25.430330174608713
ltibia 35.59592038400111
lfoot -1.2723564465422943 -5.886870630874558
ltoes -27.87605768993147
rfemur -48.99696526837886 -1.5213023685867442 24.44354456724566
rtibia 67.86033202463106
rfoot 0.8408073588821106 -4.1989248023457515
rtoes 0.7801852646637819
lowerback nan -1.6007220473414305 -2.2585497937378305
upperback -1.7432077376129649 -2.3418306866826164 1.9523990101006483
thorax -9.509437159282585 -0.912768220689849 4.636559551520436
lowerneck -20.63355165378361 -2.382943078760409 -2.2516217081378396
upperneck 15.07108293072089 -3.0286949996023687 2.5202918325772243
head 8.070814609356932 -1.2362096336372248 0.7317638951290334
lclavicle -4.562793065823632e-15 -1.5980442421283442e-15
lhumerus -41.09080062942053 -20.007310225674967 97.2861228173779
lradius 113.77460236082729
lwrist 35.44728730837538
lhand -24.79969599362973 1.7033774502231016
lfingers nan
lthumb 1.8589217180904507 31.811513756363166
rclavicle -3.5721070497560425e-15 -6.765839442064644e-16
rhumerus -59.30141710161319 6.280063219184385 -99.06348034634779
rradius 109.60143522635633
rwrist -11.06409311710167
rhand -15.775349092473201 nan
rfingers nan
rthumb 10.297632630855823 9.685797569862972
